<svg width="565" height="448" viewBox="0 0 565 448" fill="none" xmlns="http://www.w3.org/2000/svg">
<path d="M123.048 162.339L26.962 186.42L51.043 282.506L147.129 258.425L123.048 162.339Z" fill="#085BBF"/>
<path d="M86.9626 256.211C80.9151 256.211 74.9613 254.57 69.6638 251.382C61.9286 246.741 56.4436 239.381 54.2871 230.614C49.7398 212.565 60.7566 194.188 78.8523 189.641C96.9012 185.093 115.278 196.11 119.826 214.206C122.029 222.973 120.669 232.021 116.028 239.756C111.387 247.491 104.027 252.976 95.2604 255.132C92.4945 255.883 89.7286 256.211 86.9626 256.211ZM87.0564 193.157C84.7124 193.157 82.3215 193.438 79.9306 194.048C64.2726 197.985 54.7559 213.878 58.647 229.536C60.5691 237.13 65.304 243.506 72.0079 247.538C78.7117 251.57 86.5876 252.742 94.1822 250.819C101.777 248.897 108.152 244.162 112.184 237.459C116.216 230.755 117.388 222.879 115.466 215.284C112.09 202.064 100.136 193.157 87.0564 193.157Z" fill="white"/>
<path d="M193.896 0.713867H111.715V82.8948H193.896V0.713867Z" fill="#FF98E1"/>
<path d="M167.784 63.3925H137.781C136.515 63.3925 135.531 62.408 135.531 61.1423V22.138C135.531 20.8722 136.515 19.8877 137.781 19.8877C139.047 19.8877 140.031 20.8722 140.031 22.138V58.892H167.784C169.05 58.892 170.034 59.8765 170.034 61.1423C170.034 62.408 169.05 63.3925 167.784 63.3925Z" fill="white"/>
<path d="M455.697 72.5628L431.838 167.639L526.914 191.498L550.773 96.4225L455.697 72.5628Z" fill="#60A6E7"/>
<path d="M508.744 162.31C508.556 162.31 508.369 162.31 508.181 162.263L463.598 151.059C462.707 150.824 462.051 150.121 461.91 149.183C461.77 148.246 462.192 147.402 462.989 146.933L515.963 115.242L472.224 104.272C471.005 103.991 470.302 102.725 470.583 101.553C470.865 100.334 472.13 99.631 473.302 99.9123L522.339 112.195C523.23 112.429 523.886 113.133 524.027 114.07C524.167 115.008 523.745 115.852 522.948 116.32L469.974 148.011L509.259 157.856C510.478 158.138 511.181 159.403 510.9 160.575C510.666 161.607 509.728 162.31 508.744 162.31Z" fill="white"/>
<path d="M411.936 44.9692H378.182C376.917 44.9692 375.932 43.9848 375.932 42.719C375.932 41.4532 376.963 40.4688 378.182 40.4688H411.936C413.202 40.4688 414.186 41.4532 414.186 42.719C414.186 43.9848 413.202 44.9692 411.936 44.9692Z" fill="#085BBF"/>
<path d="M494.492 44.9692H429.985C428.719 44.9692 427.735 43.9848 427.735 42.719C427.735 41.4532 428.719 40.4688 429.985 40.4688H494.492C495.758 40.4688 496.742 41.4532 496.742 42.719C496.742 43.9848 495.711 44.9692 494.492 44.9692Z" fill="#085BBF"/>
<path d="M428.438 81.395H398.435C397.169 81.395 396.184 80.3637 396.184 79.1448C396.184 77.879 397.216 76.8945 398.435 76.8945H428.438C429.704 76.8945 430.688 77.879 430.688 79.1448C430.688 80.3637 429.704 81.395 428.438 81.395Z" fill="#085BBF"/>
<path d="M71.3046 134.65H2.25012C0.984356 134.65 -0.00012207 133.665 -0.00012207 132.4C-0.00012207 131.134 0.984356 130.149 2.25012 130.149H71.3046C72.5704 130.149 73.5549 131.134 73.5549 132.4C73.5549 133.665 72.5235 134.65 71.3046 134.65Z" fill="#085BBF"/>
<path d="M57.0531 106.147H2.25012C0.984356 106.147 -0.00012207 105.162 -0.00012207 103.897C-0.00012207 102.631 0.984356 101.646 2.25012 101.646H57.0062C58.2719 101.646 59.2564 102.631 59.2564 103.897C59.2564 105.162 58.2719 106.147 57.0531 106.147Z" fill="#085BBF"/>
<path d="M106.559 151.902C106.184 151.902 105.808 151.809 105.433 151.621C104.355 151.012 103.98 149.605 104.59 148.527L133.093 99.0215C133.702 97.9433 135.109 97.5682 136.187 98.1776C137.265 98.7871 137.64 100.194 137.031 101.272L108.527 150.777C108.106 151.527 107.309 151.902 106.559 151.902Z" fill="#085BBF"/>
<path d="M562.75 277.963H539.122C537.856 277.963 536.872 276.979 536.872 275.713C536.872 274.447 537.903 273.463 539.122 273.463H562.75C564.015 273.463 565 274.447 565 275.713C565 276.979 564.015 277.963 562.75 277.963Z" fill="#085BBF"/>
<path d="M12.0949 221.613C9.61027 218.613 7.07874 215.612 4.59409 212.612C2.71888 210.362 -0.422088 213.597 1.40624 215.8C3.89089 218.8 6.42242 221.801 8.90707 224.801C10.7823 227.004 13.9232 223.816 12.0949 221.613Z" fill="white"/>
<path d="M542.825 244.584C536.309 253.585 529.84 262.586 523.323 271.587C521.636 273.931 525.527 276.182 527.214 273.838C533.731 264.837 540.2 255.836 546.717 246.835C548.404 244.491 544.513 242.24 542.825 244.584Z" fill="white"/>
<path d="M192.115 18.3408C180.957 18.3408 171.488 10.8869 168.393 0.713867H163.705C166.893 13.4184 178.426 22.8413 192.068 22.8413C192.677 22.8413 193.24 22.8413 193.849 22.7944V18.2939C193.287 18.3408 192.677 18.3408 192.115 18.3408Z" fill="white"/>
<path d="M445.643 393.429C445.362 392.21 444.19 391.46 442.971 391.694C442.643 391.741 442.361 391.882 442.127 392.069C438.892 387.616 433.782 380.537 431.532 376.927C415.64 351.19 401.81 324.562 384.746 299.528C375.932 286.589 369.931 272.29 359.008 261.133C354.977 257.007 346.726 256.539 343.632 251.475L333.599 260.008L276.218 234.786C270.639 245.053 261.263 247.116 252.122 255.46C237.917 277.353 222.962 306.185 207.585 327.281C204.585 332.672 201.444 337.969 198.256 343.22C198.116 343.22 197.928 343.22 197.787 343.22C196.569 343.408 195.725 344.533 195.865 345.752L207.96 427.886H210.351H212.508H448.596H449.393H453.238L445.643 393.429Z" fill="#1F3449"/>
<path d="M374.948 144.166C371.807 135.353 362.102 131.368 354.32 134.087C358.493 127.102 364.025 120.679 364.446 112.194C364.868 104.084 360.18 97.9426 352.023 96.8174C335.99 94.7078 319.817 107.881 309.644 121.101C306.831 116.273 299.33 113.366 292.814 115.804C283.766 119.179 276.64 128.79 270.921 136.009C263.607 145.245 257.607 155.23 252.59 165.872C251.934 167.278 252.731 168.544 253.809 169.06C253.809 169.154 253.809 169.2 253.809 169.294C254.512 175.389 261.544 176.326 266.373 176.889C280.672 178.53 295.204 178.952 309.55 179.983C313.019 180.217 316.535 180.545 320.098 180.827C321.692 180.967 323.286 181.061 324.88 181.155C332.896 181.577 340.913 181.53 348.695 179.702C357.039 177.733 365.947 172.623 371.338 165.544C371.9 164.841 372.369 164.09 372.838 163.34C373.166 162.825 373.494 162.262 373.776 161.7C375.088 159.168 375.979 156.449 376.26 153.542C376.448 150.542 376.12 147.401 374.948 144.166Z" fill="#1F3449"/>
<path d="M257.372 231.457C261.122 278.712 285.875 287.713 314.378 289.214C342.882 290.714 357.883 275.712 359.383 238.958C360.883 202.204 351.132 139.431 296.376 148.901C257.138 155.699 255.309 205.251 257.372 231.457Z" fill="white"/>
<path d="M357.18 238.864C356.946 244.49 356.383 249.6 355.539 254.194C353.43 265.258 349.492 273.321 343.585 278.759C336.787 284.948 327.27 287.667 314.566 286.963C301.393 286.26 288.594 284.01 278.656 276.087C268.67 268.164 261.544 254.569 259.669 231.27C257.935 209.424 258.075 157.808 296.845 151.151C300.408 150.542 303.83 150.214 307.065 150.214C317.754 150.214 326.849 153.496 334.302 160.012C351.461 175.06 357.414 206.048 357.414 232.254C357.321 234.458 357.274 236.708 357.18 238.864ZM337.209 156.59C326.427 147.167 312.597 143.791 296.001 146.651C253.575 153.964 253.294 208.486 255.122 231.598C255.169 232.254 255.216 232.911 255.309 233.567C255.872 239.521 256.763 244.865 257.982 249.647C266.654 283.869 290.891 290.198 314.285 291.464C315.644 291.558 316.957 291.558 318.223 291.558C330.271 291.558 339.553 288.417 346.585 282.041C352.68 276.509 356.899 268.539 359.337 257.991C360.602 252.413 361.399 246.084 361.681 239.005C361.727 237.364 361.821 235.255 361.821 232.77C361.868 214.44 359.149 175.904 337.209 156.59Z" fill="#1F3449"/>
<path d="M310.675 227.051C310.206 227.051 309.784 226.91 309.362 226.629C296.705 217.628 297.267 202.532 302.471 179.514C302.752 178.295 303.971 177.545 305.143 177.827C306.362 178.108 307.112 179.327 306.831 180.499C301.205 205.158 302.565 216.268 311.941 222.925C312.972 223.629 313.206 225.035 312.456 226.066C312.081 226.723 311.378 227.051 310.675 227.051Z" fill="#1F3449"/>
<path d="M301.299 235.442C298.017 234.036 294.642 234.458 291.876 236.708C290.938 237.458 291.079 239.099 291.876 239.896C292.814 240.833 294.126 240.646 295.064 239.896C296.095 239.052 297.783 238.771 299.049 239.333C300.174 239.802 301.486 239.661 302.143 238.536C302.658 237.552 302.424 235.911 301.299 235.442Z" fill="#1F3449"/>
<path d="M292.063 220.347C291.22 218.8 289.766 217.722 287.985 217.534C284.938 217.159 282.406 219.316 279.875 220.581C273.077 223.957 265.529 219.831 261.404 214.206C252.45 201.97 259.107 184.999 256.388 171.17C255.403 166.107 253.294 161.325 249.59 157.762C249.871 155.559 248.887 153.074 247.199 151.527C242.699 147.355 235.573 150.73 231.213 153.402C219.493 160.575 210.82 171.685 204.116 183.452C196.147 197.47 190.709 212.799 183.489 227.192C176.176 241.724 166.659 254.945 156.533 267.649C154.048 270.79 151.517 273.884 148.985 276.931C146.594 279.838 144.344 283.073 141.531 285.557C138.765 288.042 134.874 289.12 132.296 285.932C130.796 284.104 130.046 281.666 129.155 279.463C127.702 275.806 125.639 271.493 121.091 271.353C114.903 271.165 110.59 278.057 107.402 282.37C97.8857 295.121 89.2129 308.482 81.4308 322.358C73.7424 336.047 66.5698 350.252 61.3192 365.066C56.303 379.13 53.162 394.554 55.9749 409.415C58.1782 421.229 64.3195 432.761 73.6487 440.45C83.6342 448.654 98.3077 446.263 110.731 442.934C124.842 439.137 136.14 429.339 145.61 418.556C166.331 394.929 181.661 372.801 197.928 345.939C206.226 332.203 214.242 318.327 222.212 304.45C230.088 290.761 237.589 276.65 246.168 263.383C250.153 257.242 254.887 252.366 261.404 249.038C266.654 246.366 272.28 244.537 277.624 242.099C282.406 239.896 287.047 237.13 290.235 232.911C292.814 229.442 294.314 224.379 292.063 220.347Z" fill="white"/>
<path d="M174.347 248.241C180.489 239.521 184.708 231.129 188.599 221.191C191.084 214.815 191.599 207.455 194.412 201.407C194.6 200.985 194.834 200.517 195.068 200.095C182.317 198.829 173.363 193.203 152.079 210.455C136.281 231.176 122.779 253.538 109.84 276.134C118.56 279.135 127.655 286.823 137.359 294.84C149.548 281.104 163.706 263.289 174.347 248.241Z" fill="#1F3449"/>
<path d="M269.373 155.652C276.874 156.402 294.126 160.903 288.876 175.905C283.625 190.906 269.373 155.652 269.373 155.652Z" fill="white"/>
<path d="M285.453 181.905C278.328 181.905 270.405 164.184 267.311 156.543C267.029 155.793 267.123 154.996 267.592 154.339C268.061 153.73 268.811 153.402 269.608 153.449C272.139 153.683 284.891 155.371 290.048 163.434C292.438 167.232 292.767 171.685 291.032 176.701C289.532 180.967 287.235 181.905 285.547 181.905C285.5 181.905 285.453 181.905 285.453 181.905ZM273.03 158.512C277.624 168.919 283.109 177.405 285.406 177.405C285.547 177.405 286.11 177.123 286.766 175.201C288.079 171.498 287.891 168.45 286.25 165.872C283.766 161.934 278.187 159.59 273.03 158.512Z" fill="#1F3449"/>
<path d="M241.386 167.794L273.124 161.653C273.124 154.152 272.374 148.151 257.372 151.152L245.183 149.089C244.902 155.511 242.98 161.606 241.386 167.794Z" fill="white"/>
<path d="M260.372 170.654C260.044 170.654 259.669 170.56 259.341 170.419C258.685 170.091 258.216 169.482 258.122 168.731L255.872 153.73C255.825 153.449 255.825 153.167 255.919 152.886C255.544 152.558 255.262 152.136 255.169 151.62C254.934 150.401 255.731 149.229 256.95 148.948C264.217 147.495 268.951 147.917 271.905 150.354C275.14 152.98 275.374 157.199 275.374 161.653C275.374 162.496 274.905 163.246 274.155 163.622L261.404 170.372C261.076 170.56 260.747 170.654 260.372 170.654ZM260.326 152.933C260.326 152.98 260.326 153.027 260.372 153.073L262.154 164.934L270.874 160.293C270.827 157.48 270.499 155.042 269.045 153.824C267.545 152.605 264.639 152.323 260.326 152.933Z" fill="#1F3449"/>
<path d="M98.5421 447.668C80.7276 447.668 65.679 440.121 57.8032 427.041C48.1927 411.102 44.2079 379.786 79.8837 321.092C86.9158 309.513 93.3384 298.871 99.2453 289.026C145.282 212.377 160.799 186.593 195.021 197.047C196.193 197.422 196.897 198.688 196.522 199.86C196.147 201.032 194.881 201.735 193.709 201.36C162.862 191.89 147.813 216.971 103.089 291.37C97.1825 301.215 90.76 311.903 83.7279 323.436C49.1772 380.208 52.6464 409.836 61.6474 424.744C69.2419 437.355 84.4311 444.199 102.292 443.074C113.309 442.371 133.749 429.62 154.658 402.663C181.145 368.488 202.757 333.797 215.649 313.075C219.915 306.231 223.29 300.793 225.822 296.996C231.213 288.932 235.62 280.025 239.558 272.149C245.699 259.82 250.106 250.912 255.825 248.85C264.357 245.756 283.578 236.239 288.36 226.675C289.813 223.816 289.766 222.081 289.157 221.659C287.938 220.862 284.141 221.753 281.562 224.659C280.765 225.597 279.312 225.691 278.374 224.894C277.437 224.097 277.343 222.644 278.14 221.706C281.984 217.346 288.126 215.612 291.595 217.909C292.954 218.846 295.814 221.753 292.345 228.691C286.532 240.317 264.592 250.444 257.325 253.069C253.34 254.522 248.605 264.039 243.542 274.118C239.558 282.088 235.057 291.136 229.525 299.48C226.994 303.231 223.665 308.622 219.399 315.466C206.46 336.281 184.802 371.066 158.127 405.429C139 430.088 117.153 446.637 102.48 447.575C101.214 447.622 99.8547 447.668 98.5421 447.668Z" fill="#1F3449"/>
<path d="M254.372 232.207C274.463 232.207 290.751 215.92 290.751 195.828C290.751 175.737 274.463 159.449 254.372 159.449C234.28 159.449 217.993 175.737 217.993 195.828C217.993 215.92 234.28 232.207 254.372 232.207Z" fill="white"/>
<path d="M254.372 157.152C249.543 157.152 244.902 158.043 240.636 159.684C235.01 161.84 229.994 165.263 225.962 169.622C223.759 174.639 222.587 179.842 221.931 185.14C226.431 171.545 239.276 161.7 254.372 161.7C273.218 161.7 288.501 177.03 288.501 195.828C288.501 214.627 273.171 229.957 254.372 229.957C239.886 229.957 227.463 220.862 222.493 208.064C221.931 206.564 221.415 205.017 221.087 203.376C221.04 207.22 220.993 211.065 220.806 214.862C221.321 215.799 221.884 216.69 222.493 217.534C229.478 227.707 241.152 234.411 254.372 234.411C275.702 234.411 293.001 217.065 293.001 195.782C293.001 174.498 275.702 157.152 254.372 157.152Z" fill="#1F3449"/>
<path d="M254.372 222.831C269.285 222.831 281.375 210.742 281.375 195.828C281.375 180.915 269.285 168.825 254.372 168.825C239.458 168.825 227.369 180.915 227.369 195.828C227.369 210.742 239.458 222.831 254.372 222.831Z" fill="white"/>
<path d="M254.372 225.082C238.245 225.082 225.119 211.955 225.119 195.828C225.119 179.702 238.245 166.575 254.372 166.575C270.499 166.575 283.625 179.702 283.625 195.828C283.625 211.955 270.499 225.082 254.372 225.082ZM254.372 171.029C240.73 171.029 229.619 182.139 229.619 195.782C229.619 209.424 240.73 220.534 254.372 220.534C268.014 220.534 279.125 209.424 279.125 195.782C279.125 182.139 268.014 171.029 254.372 171.029Z" fill="#1F3449"/>
<path d="M290.376 192.453C289.719 192.453 289.11 192.172 288.641 191.656C287.844 190.719 287.938 189.265 288.922 188.468L303.549 176.092C304.393 175.389 305.659 175.389 306.502 176.139L320.567 188.515C321.504 189.359 321.598 190.765 320.754 191.703C319.957 192.641 318.504 192.734 317.566 191.891L304.955 180.78L291.829 191.891C291.407 192.266 290.891 192.453 290.376 192.453Z" fill="#1F3449"/>
<path d="M247.621 202.579C247.059 202.579 246.449 202.345 246.027 201.923C245.136 201.032 245.136 199.626 246.027 198.735L261.779 182.983C262.67 182.093 264.076 182.093 264.967 182.983C265.857 183.874 265.857 185.281 264.967 186.171L249.215 201.923C248.793 202.345 248.184 202.579 247.621 202.579Z" fill="#60A6E7"/>
<path d="M104.308 347.767C103.886 347.767 103.464 347.674 103.089 347.392C102.058 346.736 101.73 345.33 102.386 344.298C102.761 343.736 138.718 287.62 160.986 257.851C173.738 240.834 182.926 221.754 191.037 204.877C197.084 192.313 202.804 180.405 208.992 171.592C219.54 156.637 232.807 147.026 241.339 148.292C244.339 148.714 246.543 150.543 247.48 153.402C248.606 156.824 245.089 159.309 240.214 162.684C234.635 166.529 227.041 171.826 225.025 179.468C223.618 184.765 223.993 192.36 224.415 200.376C225.072 213.081 225.775 227.473 219.493 237.177C218.837 238.208 217.43 238.537 216.399 237.833C215.367 237.177 215.039 235.771 215.743 234.739C221.227 226.254 220.571 212.659 219.962 200.611C219.54 192.219 219.118 184.296 220.712 178.342C223.15 169.107 231.541 163.294 237.682 159.028C239.792 157.575 242.652 155.606 243.167 154.621C242.745 153.543 241.995 152.933 240.73 152.793C234.963 151.949 222.915 159.731 212.695 174.217C206.695 182.749 201.069 194.422 195.115 206.846C186.911 223.91 177.629 243.225 164.643 260.57C142.422 290.152 106.559 346.174 106.23 346.736C105.762 347.392 105.058 347.767 104.308 347.767Z" fill="#1F3449"/>
<path d="M258.122 160.903C256.856 160.903 255.872 159.918 255.872 158.652C255.872 155.511 255.591 153.214 254.231 152.089C252.497 150.636 248.371 150.589 242.042 151.855C240.823 152.089 239.651 151.292 239.37 150.073C239.136 148.855 239.933 147.682 241.152 147.401C249.215 145.807 254.137 146.135 257.091 148.573C260.091 151.058 260.372 155.043 260.372 158.606C260.372 159.918 259.388 160.903 258.122 160.903Z" fill="#1F3449"/>
<path d="M139.14 293.527C133.28 285.276 120.67 278.384 110.825 273.978C109.981 275.243 109.137 276.509 108.293 277.775C117.716 281.947 130.046 288.557 135.484 296.152C135.906 296.761 136.609 297.089 137.312 297.089C137.781 297.089 138.203 296.949 138.625 296.668C139.656 295.964 139.89 294.558 139.14 293.527Z" fill="#1F3449"/>
<path d="M547.326 364.316C542.263 349.502 535.372 335.297 528.011 321.608C520.557 307.731 512.213 294.37 503.071 281.619C499.977 277.306 494.68 260.898 488.726 261.086C484.366 261.226 465.426 279.041 463.129 276.181C462.238 275.056 461.395 273.978 460.504 272.852C459.566 274.259 458.629 275.665 457.691 277.025C456.097 274.821 454.738 272.899 454.456 272.524C444.752 259.867 435.611 246.646 428.578 232.114C421.593 217.721 416.437 202.438 408.748 188.374C402.326 176.607 393.981 165.45 382.73 158.324C378.557 155.699 365.15 149.98 359.618 152.277C356.336 153.636 355.914 159.496 365.15 162.684C361.587 166.247 359.618 171.029 358.633 176.092C356.008 189.921 362.431 206.892 353.851 219.128C349.914 224.753 342.694 228.879 336.131 225.503C333.646 224.238 331.255 222.081 328.349 222.456C326.661 222.691 325.255 223.769 324.458 225.316C322.301 229.348 323.754 234.411 326.239 237.88C329.333 242.146 333.787 244.912 338.334 247.068C343.491 249.506 348.882 251.334 353.898 254.007C360.18 257.335 364.728 262.211 368.525 268.352C376.776 281.619 383.949 295.73 391.543 309.419C397.075 319.404 402.607 329.437 408.232 339.375C408.279 339.329 415.077 348.939 415.124 348.892C415.78 348.142 416.39 347.345 417.046 346.595C432.329 372.848 446.909 394.6 466.505 417.853C475.552 428.635 486.429 438.433 499.977 442.231C511.885 445.559 525.995 447.95 535.559 439.746C544.513 432.011 554.124 421.978 556.233 410.164C558.905 395.257 552.108 378.38 547.326 364.316Z" fill="white"/>
<path d="M492.711 263.148C490.929 259.726 488.866 256.445 487.46 253.819C483.053 245.662 478.318 237.599 473.208 229.864C459.707 209.424 439.127 193.016 415.311 198.97C418.218 203.939 420.656 209.283 422.953 214.674C429.751 230.567 437.345 244.865 446.487 259.539C451.503 267.602 456.707 275.572 461.957 283.541C469.177 273.603 481.272 267.743 492.711 263.148Z" fill="#1F3449"/>
<path d="M340.678 155.651C333.177 156.401 307.862 170.184 319.395 181.154C325.302 186.827 340.678 155.651 340.678 155.651Z" fill="white"/>
<path d="M321.035 184.108C319.817 184.108 318.738 183.64 317.801 182.796C313.488 178.717 313.769 174.451 314.753 171.591C318.082 161.84 334.631 153.964 340.444 153.402C341.288 153.355 342.038 153.683 342.506 154.339C342.975 154.996 343.022 155.886 342.694 156.637C339.694 162.731 329.286 182.702 321.926 184.015C321.598 184.062 321.317 184.108 321.035 184.108ZM336.318 159.215C330.036 161.7 321.035 167.325 319.02 173.092C318.223 175.482 318.785 177.545 320.942 179.561C323.004 180.03 329.755 171.451 336.318 159.215Z" fill="#1F3449"/>
<path d="M333.037 166.106L345.46 169.528L347.71 154.527L348.46 152.276C333.459 149.276 333.037 158.605 333.037 166.106Z" fill="white"/>
<path d="M345.46 171.778C345.272 171.778 345.038 171.732 344.851 171.685L332.427 168.262C331.443 167.981 330.786 167.09 330.786 166.106C330.786 161.887 330.786 155.511 335.146 151.948C338.194 149.463 342.694 148.807 348.929 150.073C349.585 150.214 350.101 150.589 350.429 151.151C350.757 151.714 350.804 152.37 350.617 152.979L349.914 155.042L347.71 169.856C347.617 170.513 347.241 171.075 346.726 171.403C346.304 171.685 345.882 171.778 345.46 171.778ZM335.287 164.418L343.585 166.715L345.46 154.198C345.46 154.151 345.46 154.105 345.46 154.105C342.038 153.73 339.506 154.151 337.912 155.464C335.803 157.199 335.381 160.621 335.287 164.418Z" fill="#1F3449"/>
<path d="M511.509 447.668C510.197 447.668 508.837 447.622 507.478 447.528C492.804 446.59 470.958 430.088 451.831 405.383C425.203 371.019 403.498 336.234 390.559 315.419C386.293 308.575 382.964 303.184 380.432 299.433C375.182 291.557 370.635 282.932 366.65 275.337C361.024 264.648 355.727 254.569 351.554 253.069C342.881 249.928 323.239 239.849 317.66 228.691C313.956 221.331 317.004 218.237 318.504 217.252C321.926 214.955 327.505 216.409 331.161 220.581C331.958 221.518 331.865 222.925 330.927 223.769C329.989 224.566 328.583 224.472 327.739 223.534C325.348 220.815 322.16 220.206 320.988 220.956C320.004 221.612 320.285 223.862 321.692 226.675C326.614 236.473 345.319 245.99 353.101 248.85C358.915 250.959 364.118 260.804 370.681 273.274C374.619 280.775 379.12 289.307 384.23 296.996C386.761 300.84 390.137 306.231 394.403 313.075C407.295 333.797 428.907 368.488 455.394 402.663C476.302 429.62 496.789 442.371 507.759 443.074C525.62 444.199 540.81 437.355 548.404 424.744C557.405 409.883 560.874 380.208 526.324 323.436C519.292 311.857 512.869 301.168 506.962 291.37C462.285 216.971 447.19 191.937 416.343 201.36C415.171 201.735 413.905 201.079 413.53 199.86C413.155 198.688 413.811 197.422 415.03 197.047C449.253 186.593 464.77 212.377 510.806 289.026C516.713 298.871 523.136 309.513 530.168 321.092C565.891 379.786 561.906 411.102 552.248 427.041C544.372 440.121 529.324 447.668 511.509 447.668Z" fill="#1F3449"/>
<path d="M359.899 149.323C345.694 146.697 343.866 152.136 343.866 159.496L355.445 167.043C356.336 161.043 358.071 155.136 359.899 149.323Z" fill="white"/>
<path d="M357.414 166.95C356.899 160.481 357.977 153.261 360.649 147.167C353.242 145.76 348.366 146.276 345.272 148.807C342.038 151.48 341.616 155.699 341.616 159.543C341.616 160.293 341.991 160.996 342.647 161.418L355.399 169.763C355.774 169.997 356.196 170.138 356.617 170.138C356.899 170.138 357.18 170.091 357.461 169.95C357.508 169.247 357.602 168.591 357.696 167.888C357.555 167.606 357.414 167.325 357.414 166.95ZM355.117 164.184L346.116 158.277C346.21 155.089 346.819 153.308 348.132 152.23C349.867 150.823 353.195 150.495 358.024 151.245L355.117 164.184Z" fill="#1F3449"/>
<path d="M355.68 232.207C375.771 232.207 392.059 215.92 392.059 195.828C392.059 175.737 375.771 159.449 355.68 159.449C335.588 159.449 319.301 175.737 319.301 195.828C319.301 215.92 335.588 232.207 355.68 232.207Z" fill="white"/>
<path d="M388.262 205.908C388.168 206.189 388.074 206.517 387.98 206.798C383.386 220.253 370.635 229.957 355.633 229.957C336.787 229.957 321.504 214.627 321.504 195.828C321.504 190.578 322.723 185.562 324.833 181.108C330.318 169.622 342.085 161.7 355.633 161.7C361.259 161.7 366.556 163.059 371.244 165.497C379.589 169.81 385.964 177.498 388.543 186.781C388.59 186.968 388.637 187.109 388.684 187.296C388.355 180.78 387.043 174.498 383.339 168.919C380.526 166.06 377.292 163.575 373.729 161.7C369.275 159.356 364.306 157.809 359.008 157.34C357.883 157.246 356.758 157.199 355.633 157.199C339.647 157.199 325.911 166.95 320.051 180.78C318.082 185.421 317.004 190.484 317.004 195.828C317.004 217.159 334.349 234.458 355.633 234.458C369.041 234.458 380.855 227.613 387.793 217.206C388.027 216.878 388.215 216.55 388.449 216.174C388.168 212.846 388.168 209.424 388.262 205.908Z" fill="#1F3449"/>
<path d="M355.68 222.831C370.593 222.831 382.683 210.742 382.683 195.828C382.683 180.915 370.593 168.825 355.68 168.825C340.766 168.825 328.677 180.915 328.677 195.828C328.677 210.742 340.766 222.831 355.68 222.831Z" fill="white"/>
<path d="M355.68 225.082C339.553 225.082 326.427 211.955 326.427 195.828C326.427 179.702 339.553 166.575 355.68 166.575C371.807 166.575 384.933 179.702 384.933 195.828C384.933 211.955 371.807 225.082 355.68 225.082ZM355.68 171.029C342.038 171.029 330.927 182.139 330.927 195.782C330.927 209.424 342.038 220.534 355.68 220.534C369.322 220.534 380.433 209.424 380.433 195.782C380.433 182.139 369.322 171.029 355.68 171.029Z" fill="#1F3449"/>
<path d="M505.743 347.767C504.993 347.767 504.29 347.392 503.868 346.736C503.493 346.173 467.63 290.198 445.455 260.57C432.423 243.224 423.14 223.91 414.983 206.845C409.03 194.422 403.404 182.749 397.403 174.217C386.668 158.981 369.603 151.339 362.524 152.793C360.462 153.214 360.227 154.246 360.133 154.621C359.899 155.746 361.962 156.637 366.369 158.231C373.635 160.856 384.605 164.794 389.34 178.155C391.543 184.437 391.074 193.063 390.512 202.204C389.809 214.206 389.105 226.629 394.356 234.692C395.012 235.724 394.731 237.13 393.7 237.786C392.668 238.443 391.262 238.161 390.606 237.13C384.558 227.848 385.308 214.674 386.058 201.923C386.574 193.25 387.043 185.093 385.121 179.608C381.136 168.263 371.76 164.888 364.915 162.403C359.899 160.622 354.695 158.746 355.82 153.636C356.43 150.871 358.493 148.948 361.68 148.339C371.244 146.37 389.762 155.465 401.107 171.592C407.295 180.405 413.014 192.266 419.062 204.876C427.172 221.753 436.361 240.834 449.112 257.851C471.427 287.573 507.384 343.736 507.712 344.298C508.369 345.329 508.087 346.736 507.009 347.392C506.587 347.627 506.165 347.767 505.743 347.767Z" fill="#1F3449"/>
<path d="M495.242 263.617C486.194 258.413 468.052 271.306 461.395 277.212C462.332 278.431 463.176 279.65 464.02 280.916C470.677 274.775 487.226 264.227 493.039 267.508C494.117 268.118 495.477 267.743 496.133 266.664C496.695 265.633 496.32 264.273 495.242 263.617Z" fill="#1F3449"/>
<path d="M344.429 202.579C343.866 202.579 343.257 202.345 342.835 201.923C341.944 201.032 341.944 199.626 342.835 198.735L358.586 182.983C359.477 182.093 360.884 182.093 361.774 182.983C362.665 183.874 362.665 185.281 361.774 186.171L346.023 201.923C345.554 202.345 344.991 202.579 344.429 202.579Z" fill="#60A6E7"/>
</svg>
